<?xml version="1.0" encoding="UTF-8"?>
<svg xmlns="http://www.w3.org/2000/svg" xmlns:xlink="http://www.w3.org/1999/xlink" viewBox="0 0 1492.79 240.43">
  <defs>
    <style>
      .cls-1 {
        fill: url(#linear-gradient);
      }

      .cls-1, .cls-2, .cls-3 {
        stroke-width: 0px;
      }

      .cls-2 {
        fill: #230056;
      }

      .cls-3 {
        fill: url(#linear-gradient-2);
      }
    </style>
    <linearGradient id="linear-gradient" x1="1053.61" y1="135.68" x2="899.5" y2="215.76" gradientUnits="userSpaceOnUse">
      <stop offset="0" stop-color="#de48f5"/>
      <stop offset=".09" stop-color="#e33dda"/>
      <stop offset=".28" stop-color="#ef27a3"/>
      <stop offset=".42" stop-color="#f71980"/>
      <stop offset=".5" stop-color="#fa1474"/>
      <stop offset="1" stop-color="#f8234e"/>
    </linearGradient>
    <linearGradient id="linear-gradient-2" x1="872.01" y1="72.13" x2="1054.63" y2="39.93" gradientUnits="userSpaceOnUse">
      <stop offset="0" stop-color="#ee1d9a"/>
      <stop offset=".24" stop-color="#bb2fb7"/>
      <stop offset=".48" stop-color="#903fd0"/>
      <stop offset=".69" stop-color="#714ae2"/>
      <stop offset=".87" stop-color="#5e51ee"/>
      <stop offset="1" stop-color="#5854f2"/>
    </linearGradient>
  </defs>
  <g id="Pink">
    <path class="cls-1" d="m897.31,238.52h85.5c38.47,0,69.95-31.48,69.95-69.95h0c0-23.72-11.97-44.76-30.16-57.43-12.61,18.59-33.91,30.87-57.93,30.87h-67.37v96.51Z"/>
  </g>
  <g id="Purple">
    <path class="cls-3" d="m982.82,98.61c14.76,0,28.48,4.64,39.8,12.53,7.58-11.18,12.02-24.64,12.02-39.09h0c0-38.47-31.48-69.95-69.95-69.95h-67.37v96.51h85.5Z"/>
  </g>
  <g id="Typo2">
    <path class="cls-2" d="m1217.37,171.31c0,13.67-2.54,25.76-7.6,36.29-5.07,10.53-12.27,18.63-21.61,24.31-9.34,5.68-19.97,8.52-31.91,8.52s-22.52-2.74-31.76-8.23c-9.24-5.49-16.44-13.33-21.61-23.53-5.17-10.2-7.88-21.91-8.13-35.13v-7.89c0-13.73,2.52-25.85,7.56-36.34,5.04-10.49,12.26-18.59,21.66-24.3,9.4-5.71,20.1-8.57,32.1-8.57s22.46,2.82,31.76,8.47c9.3,5.65,16.54,13.68,21.71,24.11,5.16,10.43,7.78,22.38,7.84,35.86v6.45Zm-34.36-5.87c0-13.92-2.33-24.5-6.98-31.72-4.65-7.22-11.31-10.83-19.97-10.83-16.94,0-25.89,12.71-26.86,38.12l-.1,10.3c0,13.73,2.28,24.29,6.83,31.67,4.56,7.38,11.33,11.07,20.31,11.07s15.11-3.62,19.73-10.88c4.62-7.25,6.96-17.68,7.03-31.28v-6.45Zm152.42-41.1h-60.74v22.24h17.42c11.1,0,20.92,1.89,29.45,5.68,8.53,3.79,15.1,9.13,19.68,16.03,4.59,6.9,6.88,14.81,6.88,23.73,0,13.8-5.12,25-15.35,33.59-10.24,8.6-23.98,12.9-41.25,12.9h-50.82V98.35h94.72v25.99Zm-60.74,48.22v39.95h17.33c6.87,0,12.3-1.93,16.32-5.78,4.01-3.85,6.02-8.82,6.02-14.92,0-5.78-1.99-10.43-5.97-13.96-3.98-3.53-9.5-5.29-16.56-5.29h-17.13Zm173.64,39.75h-46.3l-8.09,26.18h-36.1l51.4-140.15h31.76l51.79,140.15h-36.29l-8.18-26.18Zm-38.21-26.09h30.13l-15.11-48.61-15.02,48.61Z"/>
  </g>
  <g id="Typo1">
    <path class="cls-2" d="m117.26,94.65c-.45,9.75-3.08,18.36-7.89,25.83-4.81,7.47-11.56,13.26-20.25,17.36-8.69,4.1-18.61,6.16-29.77,6.16-18.41,0-32.9-6-43.48-17.99C5.29,114.02,0,97.09,0,75.22v-6.93c0-13.72,2.39-25.73,7.17-36.02,4.78-10.29,11.65-18.24,20.63-23.86C36.78,2.81,47.17,0,58.97,0c16.99,0,30.65,4.47,40.98,13.42,10.32,8.95,16.19,21.27,17.6,36.99h-33.67c-.26-8.53-2.4-14.65-6.45-18.37-4.04-3.72-10.2-5.58-18.47-5.58s-14.56,3.14-18.47,9.43c-3.91,6.29-5.96,16.32-6.16,30.11v9.91c0,14.94,1.88,25.62,5.63,32.03,3.75,6.41,10.21,9.62,19.38,9.62,7.76,0,13.69-1.83,17.8-5.48,4.1-3.66,6.28-9.46,6.54-17.41h33.57ZM186.37,2.02l31.26,97.44L248.8,2.02h44.44v140.06h-33.86v-32.71l3.27-66.95-33.86,99.66h-22.32l-33.96-99.75,3.27,67.05v32.71h-33.76V2.02h44.34Zm252.81,72.91c0,13.66-2.53,25.75-7.6,36.26-5.07,10.52-12.26,18.61-21.6,24.29-9.33,5.68-19.96,8.51-31.89,8.51s-22.51-2.74-31.74-8.22c-9.23-5.48-16.43-13.32-21.6-23.52-5.16-10.2-7.87-21.9-8.13-35.11v-7.89c0-13.72,2.52-25.83,7.55-36.31,5.03-10.48,12.25-18.58,21.64-24.29C355.22,2.95,365.91.1,377.9.1s22.44,2.82,31.74,8.47c9.3,5.64,16.53,13.68,21.69,24.1,5.16,10.42,7.77,22.36,7.84,35.83v6.45Zm-34.34-5.87c0-13.91-2.33-24.48-6.97-31.7-4.65-7.21-11.3-10.82-19.96-10.82-16.93,0-25.88,12.7-26.84,38.09l-.1,10.29c0,13.72,2.28,24.27,6.83,31.65,4.55,7.38,11.32,11.06,20.3,11.06s15.1-3.62,19.72-10.87c4.62-7.25,6.96-17.67,7.02-31.26v-6.44Zm161.47-40.98h-42.04v113.99h-33.76V28.09h-41.27V2.02h117.07v26.07Zm57.85,66.47v47.52h-33.76V2.02h55.89c10.71,0,20.18,1.97,28.42,5.92,8.24,3.94,14.62,9.56,19.14,16.83,4.52,7.28,6.78,15.54,6.78,24.77,0,13.66-4.89,24.58-14.67,32.75-9.78,8.18-23.2,12.26-40.26,12.26h-21.55Zm0-26.07h22.12c6.54,0,11.53-1.63,14.96-4.91,3.43-3.27,5.15-7.89,5.15-13.85,0-6.54-1.76-11.77-5.29-15.68-3.53-3.91-8.34-5.9-14.43-5.96h-22.51v40.4ZM806.68,2.02h33.76v140.06h-33.76V53.77l-50.31,88.3h-33.76V2.02h33.76v88.4L806.68,2.02Z"/>
  </g>
</svg>